# xmcd CD database file
#
# Track frame offsets:
#	150
#	21007
#	44807
#	56689
#	67845
#	82404
#	92201
#	110245
#
# Disc length: 1626 seconds
#
# Revision: 0
# Processed by: cddbd v1.5.2PL0 Copyright (c) Steve Scherf et al.
# Submitted via: CDex 1.70beta2
#
DISCID=73065808
DTITLE=Various Artist - Music from Rhythm Addiction
DYEAR=1900
DGENRE=Jazz
TTITLE0=Balinese Fantasy
TTITLE1=Apres les confidences
TTITLE2=Dub
TTITLE3=What Time is it
TTITLE4=Bhungra
TTITLE5=Mushdq Mushda
TTITLE6=Heart of the Forest
TTITLE7=Estate
EXTD=
EXTT0=
EXTT1=
EXTT2=
EXTT3=
EXTT4=
EXTT5=
EXTT6=
EXTT7=
PLAYORDER=
